<?xml version="1.0" encoding="UTF-8" standalone="no"?>
<!DOCTYPE svg PUBLIC "-//W3C//DTD SVG 1.1//EN" "http://www.w3.org/Graphics/SVG/1.1/DTD/svg11.dtd">
<svg width="100%" height="100%" viewBox="0 0 13524 3200" version="1.1" xmlns="http://www.w3.org/2000/svg" xmlns:xlink="http://www.w3.org/1999/xlink" xml:space="preserve" xmlns:serif="http://www.serif.com/" style="fill-rule:evenodd;clip-rule:evenodd;stroke-linejoin:round;stroke-miterlimit:2;">
    <g transform="matrix(1,0,0,1,-16466,-35)">
        <g id="Horizontal-Lockup_Orange" serif:id="Horizontal Lockup_Orange" transform="matrix(4.166667,0,0,4.166667,16466.544792,35)">
            <rect x="0" y="0" width="3245.53" height="768" style="fill:none;"/>
            <g id="Layer-1" serif:id="Layer 1">
                <g transform="matrix(-1,0,0,1,3932.483,149.637)">
                    <rect x="758.132" y="307.388" width="2416.219" height="7.187" style="fill:rgb(189,100,57);stroke:rgb(189,100,57);stroke-width:1px;"/>
                </g>
                <g transform="matrix(1,0,0,1,810.8574,512.7215)">
                    <path d="M0,42.143L-15.095,4.151C-16.731,0.126 -18.366,-6.036 -18.366,-6.036C-18.366,-6.036 -20.126,0.126 -21.761,4.151L-36.856,42.143L0,42.143ZM-19.12,-22.137L-17.61,-22.137L18.617,64.28L9.056,64.28L3.271,49.941L-40.001,49.941L-45.661,64.28L-54.592,64.28L-19.12,-22.137Z" style="fill:rgb(189,100,57);fill-rule:nonzero;stroke:rgb(189,100,57);stroke-width:1px;"/>
                </g>
                <g transform="matrix(1,0,0,1,922.288,522.0312)">
                    <path d="M0,24.404C19.371,24.404 26.541,14.466 26.541,1.008C26.541,-12.451 19.247,-22.515 0,-22.515L-9.686,-22.515L-9.686,24.404L0,24.404ZM36.73,54.97L26.039,54.97L9.561,31.573C6.668,32.075 3.523,32.328 0.504,32.328L-9.686,32.328L-9.686,54.97L-18.741,54.97L-18.741,-30.566L0.504,-30.566C23.9,-30.566 35.976,-17.483 35.976,1.008C35.976,13.838 29.938,23.902 18.113,28.682L36.73,54.97Z" style="fill:rgb(189,100,57);fill-rule:nonzero;stroke:rgb(189,100,57);stroke-width:1px;"/>
                </g>
                <g transform="matrix(1,0,0,1,1031.329,534.2333)">
                    <path d="M0,0C0,-25.786 19.622,-43.775 43.9,-43.775C58.995,-43.775 70.567,-38.114 77.862,-27.169L70.944,-22.14C65.41,-30.313 56.226,-35.598 43.9,-35.598C23.9,-35.598 9.435,-20.378 9.435,0C9.435,20.378 23.9,35.598 43.9,35.598C56.352,35.598 65.912,30.19 72.076,21.259L79.121,26.165C71.572,37.234 59.246,43.775 43.9,43.775C19.622,43.775 0,25.786 0,0" style="fill:rgb(189,100,57);fill-rule:nonzero;stroke:rgb(189,100,57);stroke-width:1px;"/>
                </g>
                <g transform="matrix(1,0,0,1,1185.2765,577.0015)">
                    <path d="M0,-85.536L9.056,-85.536L9.056,-37.36L54.843,-37.36L54.843,-85.536L63.899,-85.536L63.899,0L54.843,0L54.843,-29.057L9.056,-29.057L9.056,0L0,0L0,-85.536Z" style="fill:rgb(189,100,57);fill-rule:nonzero;stroke:rgb(189,100,57);stroke-width:1px;"/>
                </g>
                <g transform="matrix(1,0,0,1,0,296.868)">
                    <rect x="1330.668" y="194.598" width="9.182" height="85.536" style="fill:rgb(189,100,57);stroke:rgb(189,100,57);stroke-width:1px;"/>
                </g>
                <g transform="matrix(1,0,0,1,1440.0919,568.9509)">
                    <path d="M0,-69.435L-26.288,-69.435L-26.288,-77.485L35.347,-77.485L35.347,-69.435L9.057,-69.435L9.057,8.05L0,8.05L0,-69.435Z" style="fill:rgb(189,100,57);fill-rule:nonzero;stroke:rgb(189,100,57);stroke-width:1px;"/>
                </g>
                <g transform="matrix(1,0,0,1,1549.0117,577.0015)">
                    <path d="M0,-85.536L52.076,-85.536L52.076,-77.486L9.056,-77.486L9.056,-37.36L47.421,-37.36L47.421,-29.433L9.056,-29.433L9.056,-8.051L53.836,-8.051L53.836,0L0,0L0,-85.536Z" style="fill:rgb(189,100,57);fill-rule:nonzero;stroke:rgb(189,100,57);stroke-width:1px;"/>
                </g>
                <g transform="matrix(1,0,0,1,1674.1532,534.2333)">
                    <path d="M0,0C0,-25.786 19.622,-43.775 43.9,-43.775C58.995,-43.775 70.567,-38.114 77.863,-27.169L70.944,-22.14C65.41,-30.313 56.226,-35.598 43.9,-35.598C23.9,-35.598 9.435,-20.378 9.435,0C9.435,20.378 23.9,35.598 43.9,35.598C56.352,35.598 65.912,30.19 72.076,21.259L79.121,26.165C71.572,37.234 59.246,43.775 43.9,43.775C19.622,43.775 0,25.786 0,0" style="fill:rgb(189,100,57);fill-rule:nonzero;stroke:rgb(189,100,57);stroke-width:1px;"/>
                </g>
                <g transform="matrix(1,0,0,1,1846.214,568.9509)">
                    <path d="M0,-69.435L-26.288,-69.435L-26.288,-77.485L35.347,-77.485L35.347,-69.435L9.057,-69.435L9.057,8.05L0,8.05L0,-69.435Z" style="fill:rgb(189,100,57);fill-rule:nonzero;stroke:rgb(189,100,57);stroke-width:1px;"/>
                </g>
                <g transform="matrix(1,0,0,1,1947.0835,507.8198)">
                    <path d="M0,52.828L7.547,48.803C11.572,55.972 17.485,62.138 29.561,62.138C39.497,62.138 47.295,56.604 47.295,47.547C47.295,38.868 41.887,34.464 31.194,29.684L24.402,26.54C12.202,21.006 5.534,15.093 5.534,3.143C5.534,-9.185 15.22,-17.361 28.05,-17.361C39.497,-17.361 46.667,-12.076 51.197,-4.531L43.901,-0.001C40.631,-5.286 36.1,-9.311 28.05,-9.311C19.622,-9.311 14.465,-4.405 14.465,2.891C14.465,10.439 18.49,13.836 28.05,18.237L34.844,21.381C49.057,27.673 56.352,34.717 56.352,47.547C56.352,61.633 45.158,70.189 29.812,70.189C13.46,70.189 4.529,61.885 0,52.828" style="fill:rgb(189,100,57);fill-rule:nonzero;stroke:rgb(189,100,57);stroke-width:1px;"/>
                </g>
                <g transform="matrix(1,0,0,1,2186.0527,520.6488)">
                    <path d="M0,27.169C19.245,27.169 26.414,17.108 26.414,3.018C26.414,-11.068 19.245,-21.133 0,-21.133L-9.812,-21.133L-9.812,27.169L0,27.169ZM-18.866,-29.183L0.505,-29.183C23.902,-29.183 35.851,-16.227 35.851,3.018C35.851,21.888 23.902,35.093 0.505,35.093L-9.812,35.093L-9.812,56.352L-18.866,56.352L-18.866,-29.183Z" style="fill:rgb(189,100,57);fill-rule:nonzero;stroke:rgb(189,100,57);stroke-width:1px;"/>
                </g>
                <g transform="matrix(1,0,0,1,2298.3677,577.0015)">
                    <path d="M0,-85.536L9.057,-85.536L9.057,-8.051L49.436,-8.051L49.436,0L0,0L0,-85.536Z" style="fill:rgb(189,100,57);fill-rule:nonzero;stroke:rgb(189,100,57);stroke-width:1px;"/>
                </g>
                <g transform="matrix(1,0,0,1,2469.9268,512.7215)">
                    <path d="M0,42.143L-15.094,4.151C-16.729,0.126 -18.364,-6.036 -18.364,-6.036C-18.364,-6.036 -20.126,0.126 -21.761,4.151L-36.855,42.143L0,42.143ZM-19.119,-22.137L-17.61,-22.137L18.617,64.28L9.057,64.28L3.271,49.941L-39.999,49.941L-45.659,64.28L-54.591,64.28L-19.119,-22.137Z" style="fill:rgb(189,100,57);fill-rule:nonzero;stroke:rgb(189,100,57);stroke-width:1px;"/>
                </g>
                <g transform="matrix(1,0,0,1,2576.325,550.9615)">
                    <path d="M0,-33.457C-2.39,-36.352 -5.91,-41.381 -5.91,-41.381C-5.91,-41.381 -5.155,-35.345 -5.155,-31.699L-5.155,26.04L-13.711,26.04L-13.711,-60.377L-12.202,-60.377L38.869,0.001C41.259,2.896 44.782,7.925 44.782,7.925C44.782,7.925 44.151,1.889 44.151,-1.758L44.151,-59.496L52.58,-59.496L52.58,26.92L51.071,26.92L0,-33.457Z" style="fill:rgb(189,100,57);fill-rule:nonzero;stroke:rgb(189,100,57);stroke-width:1px;"/>
                </g>
                <g transform="matrix(1,0,0,1,2723.7332,550.9615)">
                    <path d="M0,-33.457C-2.39,-36.352 -5.913,-41.381 -5.913,-41.381C-5.913,-41.381 -5.159,-35.345 -5.159,-31.699L-5.159,26.04L-13.711,26.04L-13.711,-60.377L-12.202,-60.377L38.865,0.001C41.255,2.896 44.779,7.925 44.779,7.925C44.779,7.925 44.15,1.889 44.15,-1.758L44.15,-59.496L52.576,-59.496L52.576,26.92L51.067,26.92L0,-33.457Z" style="fill:rgb(189,100,57);fill-rule:nonzero;stroke:rgb(189,100,57);stroke-width:1px;"/>
                </g>
                <g transform="matrix(1,0,0,1,2857.4268,577.0015)">
                    <path d="M0,-85.536L52.078,-85.536L52.078,-77.486L9.058,-77.486L9.058,-37.36L47.421,-37.36L47.421,-29.433L9.058,-29.433L9.058,-8.051L53.836,-8.051L53.836,0L0,0L0,-85.536Z" style="fill:rgb(189,100,57);fill-rule:nonzero;stroke:rgb(189,100,57);stroke-width:1px;"/>
                </g>
                <g transform="matrix(1,0,0,1,3006.8457,522.0312)">
                    <path d="M0,24.404C19.371,24.404 26.541,14.466 26.541,1.008C26.541,-12.451 19.245,-22.515 0,-22.515L-9.686,-22.515L-9.686,24.404L0,24.404ZM36.728,54.97L26.039,54.97L9.559,31.573C6.667,32.075 3.523,32.328 0.502,32.328L-9.686,32.328L-9.686,54.97L-18.743,54.97L-18.743,-30.566L0.502,-30.566C23.898,-30.566 35.974,-17.483 35.974,1.008C35.974,13.838 29.938,23.902 18.111,28.682L36.728,54.97Z" style="fill:rgb(189,100,57);fill-rule:nonzero;stroke:rgb(189,100,57);stroke-width:1px;"/>
                </g>
                <g transform="matrix(1,0,0,1,3112.7422,507.8198)">
                    <path d="M0,52.828L7.549,48.803C11.574,55.972 17.487,62.138 29.562,62.138C39.497,62.138 47.295,56.604 47.295,47.547C47.295,38.868 41.887,34.464 31.194,29.684L24.404,26.54C12.202,21.006 5.534,15.093 5.534,3.143C5.534,-9.185 15.22,-17.361 28.05,-17.361C39.497,-17.361 46.667,-12.076 51.197,-4.531L43.901,-0.001C40.631,-5.286 36.1,-9.311 28.05,-9.311C19.624,-9.311 14.465,-4.405 14.465,2.891C14.465,10.439 18.49,13.836 28.05,18.237L34.844,21.381C49.056,27.673 56.352,34.717 56.352,47.547C56.352,61.633 45.158,70.189 29.812,70.189C13.462,70.189 4.531,61.885 0,52.828" style="fill:rgb(189,100,57);fill-rule:nonzero;stroke:rgb(189,100,57);stroke-width:1px;"/>
                </g>
                <g transform="matrix(1,0,0,1,757.9019,341.9565)">
                    <path d="M0,62.227L16.383,52.313C19.545,57.918 22.419,62.659 29.318,62.659C35.928,62.659 40.097,60.072 40.097,50.011L40.097,-18.396L60.216,-18.396L60.216,50.299C60.216,71.137 48,80.623 30.18,80.623C14.085,80.623 4.743,72.288 0,62.227" style="fill:rgb(189,100,57);fill-rule:nonzero;stroke:rgb(189,100,57);stroke-width:0.2px;"/>
                </g>
                <g transform="matrix(1,0,0,1,850.5526,421.2879)">
                    <path d="M0,-97.727L64.673,-97.727L64.673,-80.051L20.121,-80.051L20.121,-49.007L59.356,-49.007L59.356,-31.763L20.121,-31.763L20.121,-17.676L66.685,-17.676L66.685,0L0,0L0,-97.727Z" style="fill:rgb(189,100,57);fill-rule:nonzero;stroke:rgb(189,100,57);stroke-width:0.2px;"/>
                </g>
                <g transform="matrix(1,0,0,1,947.2758,421.2879)">
                    <path d="M0,-97.727L62.948,-97.727L62.948,-80.051L20.121,-80.051L20.121,-47.716L59.068,-47.716L59.068,-29.752L20.121,-29.752L20.121,0L0,0L0,-97.727Z" style="fill:rgb(189,100,57);fill-rule:nonzero;stroke:rgb(189,100,57);stroke-width:0.2px;"/>
                </g>
                <g transform="matrix(1,0,0,1,1038.2911,421.2879)">
                    <path d="M0,-97.727L62.948,-97.727L62.948,-80.051L20.121,-80.051L20.121,-47.716L59.068,-47.716L59.068,-29.752L20.121,-29.752L20.121,0L0,0L0,-97.727Z" style="fill:rgb(189,100,57);fill-rule:nonzero;stroke:rgb(189,100,57);stroke-width:0.2px;"/>
                </g>
                <g transform="matrix(1,0,0,1,1155.7526,365.385)">
                    <path d="M0,14.079C16.383,14.079 23.57,8.906 23.57,-4.889C23.57,-18.687 16.097,-24.148 0,-24.148L-6.324,-24.148L-6.324,14.079L0,14.079ZM45.702,55.903L22.419,55.903L6.324,31.183C4.455,31.471 2.444,31.615 0.576,31.615L-6.324,31.615L-6.324,55.903L-26.444,55.903L-26.444,-41.824L0.576,-41.824C27.881,-41.824 44.265,-28.748 44.265,-4.889C44.265,10.345 37.511,19.971 25.437,25.435L45.702,55.903Z" style="fill:rgb(189,100,57);fill-rule:nonzero;stroke:rgb(189,100,57);stroke-width:0.2px;"/>
                </g>
                <g transform="matrix(1,0,0,1,1229.1935,421.2879)">
                    <path d="M0,-97.727L64.673,-97.727L64.673,-80.051L20.12,-80.051L20.12,-49.007L59.356,-49.007L59.356,-31.763L20.12,-31.763L20.12,-17.676L66.685,-17.676L66.685,0L0,0L0,-97.727Z" style="fill:rgb(189,100,57);fill-rule:nonzero;stroke:rgb(189,100,57);stroke-width:0.2px;"/>
                </g>
                <g transform="matrix(1,0,0,1,1354.3735,354.6035)">
                    <path d="M0,35.641L-37.079,-31.043L-14.802,-31.043L2.443,0.429C6.18,7.328 10.347,18.968 10.347,18.968C10.347,18.968 14.229,7.472 17.964,0.429L34.491,-31.043L55.043,-31.043L20.264,34.202L20.264,66.684L0,66.684L0,35.641Z" style="fill:rgb(189,100,57);fill-rule:nonzero;stroke:rgb(189,100,57);stroke-width:0.2px;"/>
                </g>
                <g transform="matrix(1,0,0,1,1505.7295,341.2364)">
                    <path d="M0,62.375C21.702,62.375 31.619,49.44 31.619,31.188C31.619,12.936 21.702,0.001 0,0.001L-8.91,0.001L-8.91,62.375L0,62.375ZM-29.031,-17.676L1.007,-17.676C31.043,-17.676 52.457,2.299 52.457,31.188C52.457,60.073 31.187,80.051 1.007,80.051L-29.031,80.051L-29.031,-17.676Z" style="fill:rgb(189,100,57);fill-rule:nonzero;stroke:rgb(189,100,57);stroke-width:0.2px;"/>
                </g>
                <g transform="matrix(1,0,0,1,1575.3207,421.2881)">
                    <path d="M0,-78.191L51.743,-78.191L51.743,-64.049L16.097,-64.049L16.097,-39.21L47.488,-39.21L47.488,-25.411L16.097,-25.411L16.097,-14.143L53.352,-14.143L53.352,0L0,0L0,-78.191Z" style="fill:rgb(189,100,57);fill-rule:nonzero;stroke:rgb(189,100,57);stroke-width:0.2px;"/>
                </g>
                <g transform="matrix(1,0,0,1,1653.9324,421.2877)">
                    <path d="M0,-98.734L1.581,-98.734L49.727,-45.845L97.153,-98.734L98.878,-98.734L98.878,0L79.477,0L79.477,-36.648C79.477,-43.259 80.194,-53.752 80.194,-53.752C80.194,-53.752 74.302,-45.129 69.703,-39.953L50.302,-18.252L48.434,-18.252L29.031,-39.953C24.432,-45.129 18.54,-53.752 18.54,-53.752C18.54,-53.752 19.259,-43.259 19.259,-36.648L19.259,0L0,0L0,-98.734Z" style="fill:rgb(189,100,57);fill-rule:nonzero;stroke:rgb(189,100,57);stroke-width:0.2px;"/>
                </g>
                <g transform="matrix(1,0,0,1,1785.5258,360.2086)">
                    <path d="M0,25.723L0,-36.648L20.119,-36.648L20.119,24.575C20.119,38.802 26.299,44.263 39.666,44.263C52.889,44.263 58.925,38.802 58.925,24.575L58.925,-36.648L79.043,-36.648L79.043,25.723C79.043,50.442 61.943,62.371 39.666,62.371C17.101,62.371 0,50.442 0,25.723" style="fill:rgb(189,100,57);fill-rule:nonzero;stroke:rgb(189,100,57);stroke-width:0.2px;"/>
                </g>
                <g transform="matrix(1,0,0,1,1923.6412,365.385)">
                    <path d="M0,14.079C16.385,14.079 23.568,8.906 23.568,-4.889C23.568,-18.687 16.097,-24.148 0,-24.148L-6.324,-24.148L-6.324,14.079L0,14.079ZM45.703,55.903L22.421,55.903L6.324,31.183C4.457,31.471 2.443,31.615 0.576,31.615L-6.324,31.615L-6.324,55.903L-26.443,55.903L-26.443,-41.824L0.576,-41.824C27.881,-41.824 44.266,-28.748 44.266,-4.889C44.266,10.345 37.511,19.971 25.439,25.435L45.703,55.903Z" style="fill:rgb(189,100,57);fill-rule:nonzero;stroke:rgb(189,100,57);stroke-width:0.2px;"/>
                </g>
                <g transform="matrix(1,0,0,1,1997.0856,421.2879)">
                    <path d="M0,-97.727L64.673,-97.727L64.673,-80.051L20.119,-80.051L20.119,-49.007L59.353,-49.007L59.353,-31.763L20.119,-31.763L20.119,-17.676L66.684,-17.676L66.684,0L0,0L0,-97.727Z" style="fill:rgb(189,100,57);fill-rule:nonzero;stroke:rgb(189,100,57);stroke-width:0.2px;"/>
                </g>
                <g transform="matrix(1,0,0,1,2147.2869,374.5789)">
                    <path d="M0,16.957L-15.234,16.957L-15.234,0L0,0L0,-15.809L17.392,-15.809L17.392,0L32.626,0L32.626,16.957L17.392,16.957L17.392,32.766L0,32.766L0,16.957Z" style="fill:rgb(189,100,57);fill-rule:nonzero;stroke:rgb(189,100,57);stroke-width:0.2px;"/>
                </g>
                <g transform="matrix(1,0,0,1,2299.2148,350.5784)">
                    <path d="M0,42.828L-7.043,25.868C-9.917,18.972 -12.935,8.335 -12.935,8.335C-12.935,8.335 -15.809,18.972 -18.683,25.868L-25.727,42.828L0,42.828ZM-13.511,-27.881L-11.788,-27.881L32.91,70.709L11.784,70.709L7.184,59.641L-32.482,59.641L-37.079,70.709L-56.482,70.709L-13.511,-27.881Z" style="fill:rgb(189,100,57);fill-rule:nonzero;stroke:rgb(189,100,57);stroke-width:0.2px;"/>
                </g>
                <g transform="matrix(1,0,0,1,2347.531,342.9598)">
                    <path d="M0,59.069L16.385,49.583C20.698,56.627 26.302,61.799 36.219,61.799C44.554,61.799 49.871,57.63 49.871,51.882C49.871,44.986 44.41,42.54 35.212,38.519L30.183,36.36C15.666,30.18 6.036,22.421 6.036,6.036C6.036,-9.053 17.536,-20.55 35.5,-20.55C48.292,-20.55 57.489,-16.093 64.101,-4.453L48.435,5.605C44.986,-0.575 41.248,-3.017 35.5,-3.017C29.608,-3.017 25.871,0.72 25.871,5.605C25.871,11.641 29.608,14.087 38.23,17.821L43.259,19.979C60.363,27.306 69.993,34.781 69.993,51.594C69.993,69.706 55.763,79.619 36.647,79.619C17.968,79.619 5.896,70.709 0,59.069" style="fill:rgb(189,100,57);fill-rule:nonzero;stroke:rgb(189,100,57);stroke-width:0.2px;"/>
                </g>
                <g transform="matrix(1,0,0,1,2437.6987,342.9598)">
                    <path d="M0,59.069L16.385,49.583C20.698,56.627 26.302,61.799 36.219,61.799C44.554,61.799 49.871,57.63 49.871,51.882C49.871,44.986 44.41,42.54 35.212,38.519L30.184,36.36C15.666,30.18 6.036,22.421 6.036,6.036C6.036,-9.053 17.536,-20.55 35.5,-20.55C48.292,-20.55 57.49,-16.093 64.101,-4.453L48.436,5.605C44.986,-0.575 41.248,-3.017 35.5,-3.017C29.608,-3.017 25.871,0.72 25.871,5.605C25.871,11.641 29.608,14.087 38.23,17.821L43.259,19.979C60.364,27.306 69.993,34.781 69.993,51.594C69.993,69.706 55.763,79.619 36.648,79.619C17.968,79.619 5.896,70.709 0,59.069" style="fill:rgb(189,100,57);fill-rule:nonzero;stroke:rgb(189,100,57);stroke-width:0.2px;"/>
                </g>
                <g transform="matrix(1,0,0,1,2609.9983,372.4213)">
                    <path d="M0,0.003C0,-18.249 -12.072,-32.191 -29.892,-32.191C-47.712,-32.191 -59.784,-18.249 -59.784,0.003C-59.784,18.255 -47.712,32.194 -29.892,32.194C-12.072,32.194 0,18.255 0,0.003M-80.479,0.003C-80.479,-28.886 -58.061,-50.155 -29.892,-50.155C-1.723,-50.155 20.698,-28.886 20.698,0.003C20.698,28.888 -1.723,50.158 -29.892,50.158C-58.061,50.158 -80.479,28.888 -80.479,0.003" style="fill:rgb(189,100,57);fill-rule:nonzero;stroke:rgb(189,100,57);stroke-width:0.2px;"/>
                </g>
                <g transform="matrix(1,0,0,1,2654.4155,372.5643)">
                    <path d="M0,-0.14C0,-29.029 22.273,-50.155 50.299,-50.155C67.979,-50.155 80.623,-43.831 89.392,-30.18L74.015,-19.255C69.414,-26.73 61.511,-32.047 50.299,-32.047C32.622,-32.047 20.694,-18.392 20.694,-0.14C20.694,18.112 32.622,32.051 50.299,32.051C62.946,32.051 69.99,26.015 75.45,17.68L91.115,28.457C82.637,41.68 69.126,50.015 50.299,50.015C22.273,50.015 0,28.745 0,-0.14" style="fill:rgb(189,100,57);fill-rule:nonzero;stroke:rgb(189,100,57);stroke-width:0.2px;"/>
                </g>
                <g transform="matrix(1,0,0,1,0,-26.751)">
                    <rect x="2771.089" y="350.312" width="20.119" height="97.727" style="fill:rgb(189,100,57);stroke:rgb(189,100,57);stroke-width:0.2px;"/>
                </g>
                <g transform="matrix(1,0,0,1,2870.9497,350.5784)">
                    <path d="M0,42.828L-7.043,25.868C-9.917,18.972 -12.935,8.335 -12.935,8.335C-12.935,8.335 -15.809,18.972 -18.684,25.868L-25.727,42.828L0,42.828ZM-13.511,-27.881L-11.788,-27.881L32.91,70.709L11.784,70.709L7.183,59.641L-32.482,59.641L-37.079,70.709L-56.482,70.709L-13.511,-27.881Z" style="fill:rgb(189,100,57);fill-rule:nonzero;stroke:rgb(189,100,57);stroke-width:0.2px;"/>
                </g>
                <g transform="matrix(1,0,0,1,2937.7737,403.6122)">
                    <path d="M0,-62.375L-27.878,-62.375L-27.878,-80.051L48.004,-80.051L48.004,-62.375L20.122,-62.375L20.122,17.676L0,17.676L0,-62.375Z" style="fill:rgb(189,100,57);fill-rule:nonzero;stroke:rgb(189,100,57);stroke-width:0.2px;"/>
                </g>
                <g transform="matrix(1,0,0,1,3009.823,421.2879)">
                    <path d="M0,-97.727L64.673,-97.727L64.673,-80.051L20.119,-80.051L20.119,-49.007L59.353,-49.007L59.353,-31.763L20.119,-31.763L20.119,-17.676L66.684,-17.676L66.684,0L0,0L0,-97.727Z" style="fill:rgb(189,100,57);fill-rule:nonzero;stroke:rgb(189,100,57);stroke-width:0.2px;"/>
                </g>
                <g transform="matrix(1,0,0,1,3098.3521,342.9598)">
                    <path d="M0,59.069L16.385,49.583C20.698,56.627 26.302,61.799 36.219,61.799C44.554,61.799 49.871,57.63 49.871,51.882C49.871,44.986 44.41,42.54 35.212,38.519L30.184,36.36C15.666,30.18 6.036,22.421 6.036,6.036C6.036,-9.053 17.536,-20.55 35.5,-20.55C48.292,-20.55 57.489,-16.093 64.101,-4.453L48.435,5.605C44.986,-0.575 41.248,-3.017 35.5,-3.017C29.608,-3.017 25.871,0.72 25.871,5.605C25.871,11.641 29.608,14.087 38.23,17.821L43.259,19.979C60.364,27.306 69.993,34.781 69.993,51.594C69.993,69.706 55.763,79.619 36.648,79.619C17.968,79.619 5.896,70.709 0,59.069" style="fill:rgb(189,100,57);fill-rule:nonzero;stroke:rgb(189,100,57);stroke-width:0.2px;"/>
                </g>
            </g>
            <g transform="matrix(0.910908,0,0,0.910908,244.860181,321.371228)">
                <path d="M-0,265.76C40.207,265.76 69.194,262.409 92.095,244.484L93.181,243.634L100.143,243.634L112.781,243.581L105.92,250.449C105.146,251.224 102.784,253.261 101.223,254.463C99.244,255.985 95.306,259.052 93.482,260.258C90.58,262.178 81.931,267.371 76.839,269.632C67.872,273.614 60.298,275.335 53.992,276.529C41.284,278.936 42.314,278.296 27.209,279.595C16.051,280.555 3.748,280.795 -1.816,281.275L-1.968,281.288L-78.79,282.05L-78.79,-11.29L0,-11.29C50.285,-11.29 88.481,1.616 114.742,27.026L114.743,27.027C134.314,45.99 146.691,70.727 151.728,101.316C151.925,102.35 154.606,116.647 154.933,132.813C155.254,148.704 153.074,165.253 151.965,171.346C150.947,176.941 148.196,186.774 146.427,191.977C144.632,197.259 139.921,208.441 137.927,211.673L136.755,213.572L117.254,213.572L121.102,207.445C123.119,204.232 125.505,199.669 127.082,195.601L130.321,187.503C132.089,182.388 134.063,175.356 135.113,170.006L135.136,169.913C135.136,169.913 138.357,156.774 138.633,137.654C138.782,127.277 137.56,113.984 135.629,102.705C131.004,76.495 120.298,55.022 103.488,38.405C80.148,15.347 45.391,5.2 -0.24,5.2L-62.936,5.2L-62.704,265.76L-0,265.76ZM-100.331,191.6L-96.331,187.6L-96.331,239.15C-96.331,257.814 -102.187,273.189 -113.838,285.373C-125.461,297.558 -141.582,304.51 -162.251,304.51C-162.855,304.51 -163.449,304.509 -164.042,304.489C-185.517,304.13 -202.169,296.407 -214.015,283.042L-214.016,283.042C-222.354,273.624 -227.873,261.812 -230.476,247.559L-231.188,243.657L-215.456,240.646L-214.678,244.536C-214.247,246.695 -214.248,246.986 -213.302,250.15L-213.287,250.206C-211.152,258.182 -207.773,265.297 -203.164,271.543C-194.681,283.002 -180.971,288.51 -162.251,288.51C-144.609,288.51 -131.819,283.892 -124.116,274.079L-124.115,274.077C-116.309,264.152 -112.431,252.502 -112.431,239.15L-112.431,5.51L-112.58,5.51L-112.632,-189.06L453.13,-189.06L453.13,319.54L-79.03,319.54L-79.03,288.552L-62.69,288.552L-62.69,303.2L436.79,303.2L436.79,-172.72L-96.293,-172.72L-96.393,5.51L-96.557,5.51L-96.391,187.596L-100.331,191.54L-100.331,191.6ZM374.938,184.331L389.825,222.978L392.52,230.042L411.821,281.29L393.987,281.29L377.037,236.5L216.58,236.5L199.4,281.29L181.545,281.29L198.695,236.5L174.83,236.5L174.829,281.29L158.489,281.29L158.49,236.5L2.541,236.5L2.541,220.41L158.49,220.41L158.49,175.48L174.83,175.48L174.83,220.41L204.562,220.41L254.165,91.289L290.096,-2.8L303.697,-2.8L374.938,184.331ZM353.777,174.83L296.9,25.395L267.198,103.445L246.566,157.499L229.165,202.922L222.458,220.41L371.181,220.41L363.345,200.281L353.763,174.87L353.777,174.83Z" style="fill:rgb(189,100,57);"/>
            </g>
        </g>
    </g>
</svg>
